HIERARCHY
ROOT Hips
{
    OFFSET 0.000000 0.000000 0.000000
    CHANNELS 6 Xposition Yposition Zposition Zrotation Xrotation Yrotation
    JOINT Spine
    {
        OFFSET -0.000000 14.517291 0.000000
        CHANNELS 3 Zrotation Xrotation Yrotation
        JOINT Spine1
        {
            OFFSET -0.000000 37.558300 0.000000
            CHANNELS 3 Zrotation Xrotation Yrotation
            JOINT Neck
            {
                OFFSET -0.000000 37.404057 3.400369
                CHANNELS 3 Zrotation Xrotation Yrotation
                JOINT Head
                {
                    OFFSET -0.000000 24.785618 -3.540803
                    CHANNELS 3 Zrotation Xrotation Yrotation
                    End Site
                    {
                        OFFSET -0.000000 35.408028 0.000000
                    }
                }
            }
            JOINT LeftShoulder
            {
                OFFSET 6.992933 33.973492 -0.192664
                CHANNELS 3 Zrotation Xrotation Yrotation
                JOINT LeftArm
                {
                    OFFSET 21.527611 0.000000 0.000000
                    CHANNELS 3 Zrotation Xrotation Yrotation
                    JOINT LeftForeArm
                    {
                        OFFSET 56.353916 0.000000 0.000000
                        CHANNELS 3 Zrotation Xrotation Yrotation
                        JOINT LeftHand
                        {
                            OFFSET 47.774071 0.000000 0.000000
                            CHANNELS 3 Zrotation Xrotation Yrotation
                            End Site
                            {
                                OFFSET 26.556021 0.000000 0.000000
                            }
                        }
                    }
                }
            }
            JOINT RightShoulder
            {
                OFFSET -7.065357 33.973492 -0.192664
                CHANNELS 3 Zrotation Xrotation Yrotation
                JOINT RightArm
                {
                    OFFSET -21.527611 0.000000 0.000000
                    CHANNELS 3 Zrotation Xrotation Yrotation
                    JOINT RightForeArm
                    {
                        OFFSET -56.353916 0.000000 0.000000
                        CHANNELS 3 Zrotation Xrotation Yrotation
                        JOINT RightHand
                        {
                            OFFSET -47.774071 0.000000 0.000000
                            CHANNELS 3 Zrotation Xrotation Yrotation
                            End Site
                            {
                                OFFSET -26.556021 0.000000 0.000000
                            }
                        }
                    }
                }
            }
        }
    }
    JOINT LeftUpLeg
    {
        OFFSET 17.704014 0.000000 0.000000
        CHANNELS 3 Zrotation Xrotation Yrotation
        JOINT LeftLeg
        {
            OFFSET -0.000000 -81.181816 0.000000
            CHANNELS 3 Zrotation Xrotation Yrotation
            JOINT LeftFoot
            {
                OFFSET -0.000000 -62.821102 0.000000
                CHANNELS 3 Zrotation Xrotation Yrotation
                JOINT LeftToeBase
                {
                    OFFSET -0.000000 -11.507608 26.556021
                    CHANNELS 3 Zrotation Xrotation Yrotation
                    End Site
                    {
                        OFFSET -0.000000 0.000000 7.081605
                    }
                }
            }
        }
    }
    JOINT RightUpLeg
    {
        OFFSET -17.704014 0.000000 0.000000
        CHANNELS 3 Zrotation Xrotation Yrotation
        JOINT RightLeg
        {
            OFFSET -0.000000 -81.181816 0.000000
            CHANNELS 3 Zrotation Xrotation Yrotation
            JOINT RightFoot
            {
                OFFSET -0.000000 -62.821102 0.000000
                CHANNELS 3 Zrotation Xrotation Yrotation
                JOINT RightToeBase
                {
                    OFFSET -0.000000 -11.507608 26.556021
                    CHANNELS 3 Zrotation Xrotation Yrotation
                    End Site
                    {
                        OFFSET -0.000000 0.000000 7.081605
                    }
                }
            }
        }
    }
}
MOTION
Frames:    10
Frame Time:    0.008333
12.222883    154.573257    -121.523514    0.843229    -6.387463    40.706501    -1.612036    -3.155857    -2.887461    -6.082065    7.655989    -0.540648    1.626032    -1.948686    -18.584295    15.489893    6.108279    -18.324774    13.823438    5.221608    -38.238125    -26.161940    24.073982    -88.276131    -6.730410    -32.665573    -86.206146    -6.021821    -37.359406    -10.945301    -15.088243    -7.114821    0.696373    31.445498    -21.418182    86.158936    3.295414    -5.645088    17.930269    -2.646458    -6.857394    29.606226    18.170403    -1.496945    2.005579    -14.563728    36.747910    -17.875797    4.994816    -28.346336    43.562653    0.000000    0.000000    0.000000    -17.112484    -16.484322    -11.746084    7.943839    20.159163    -14.908675    4.509616    11.409968    -13.255265    0.000000    0.000000    0.000000    
12.205972    154.552902    -121.533516    0.853436    -6.386250    40.662487    -1.595944    -3.134649    -2.825830    -6.073425    7.541746    -0.527097    1.408351    -1.901441    -18.584457    15.859566    6.217421    -18.272167    13.731633    5.118087    -38.065971    -26.361380    23.636154    -87.669579    -7.232138    -31.359835    -86.205101    -5.866193    -36.518833    -10.933635    -15.094171    -7.116878    0.743693    31.416235    -21.424751    86.002510    3.248405    -5.580374    18.018766    -2.662712    -6.796806    29.790009    18.165617    -1.492869    2.001946    -14.601967    36.774181    -17.823919    4.990586    -28.371851    43.574154    0.000000    0.000000    0.000000    -17.121773    -16.513342    -11.768612    7.940450    20.193659    -14.871247    4.497007    11.395308    -13.209347    0.000000    0.000000    0.000000    
12.191653    154.531128    -121.544250    0.862412    -6.390390    40.615299    -1.577614    -3.116129    -2.761889    -6.055910    7.434329    -0.513000    1.313417    -1.756829    -18.613453    15.990953    6.212542    -18.273491    13.644205    5.017602    -37.903728    -26.536226    23.125483    -87.059967    -7.647224    -30.057259    -86.071716    -6.150183    -35.556858    -11.340222    -15.098455    -7.050601    0.732094    31.441685    -21.454897    85.968918    3.211000    -5.555570    18.046198    -2.671160    -6.770691    29.850918    18.163280    -1.482201    2.002712    -14.631520    36.796421    -17.791430    5.051497    -28.383078    43.598949    0.000000    0.000000    0.000000    -17.126446    -16.542253    -11.790779    7.940591    20.233076    -14.838449    4.484531    11.368332    -13.180659    0.000000    0.000000    0.000000    
12.175035    154.509293    -121.551941    0.874411    -6.404202    40.580856    -1.561307    -3.091908    -2.697988    -6.017108    7.325696    -0.500254    1.177033    -1.639999    -18.657818    16.132299    6.278486    -18.294018    13.560816    4.933425    -37.762661    -26.614916    22.541422    -86.455978    -8.107416    -28.751762    -86.000450    -6.225359    -34.668312    -11.417831    -15.134686    -7.023791    0.761358    31.467981    -21.473370    85.857018    3.190904    -5.533644    18.099804    -2.696122    -6.753732    29.849792    18.165413    -1.471444    2.009882    -14.641955    36.832764    -17.816961    5.070697    -28.422173    43.654869    0.000000    0.000000    0.000000    -17.129665    -16.557041    -11.811616    7.943016    20.270243    -14.773087    4.475040    11.354575    -13.174054    0.000000    0.000000    0.000000    
12.156707    154.489594    -121.558144    0.882668    -6.421581    40.560146    -1.531310    -3.073734    -2.644187    -6.006894    7.223505    -0.488763    1.092999    -1.523448    -18.690331    16.225447    6.342125    -18.314686    13.539270    4.897823    -37.629551    -26.513186    21.868536    -85.930229    -8.561443    -27.492849    -85.912796    -6.141928    -33.824116    -11.737800    -15.154573    -6.975440    0.787978    31.536348    -21.522293    85.775497    3.236022    -5.566622    18.129263    -2.812422    -6.821432    29.696802    18.175749    -1.466613    1.992491    -14.670574    36.865875    -17.775045    5.095385    -28.440395    43.651543    0.000000    0.000000    0.000000    -17.127205    -16.562065    -11.840602    7.948437    20.293829    -14.797814    4.450056    11.347441    -13.101460    0.000000    0.000000    0.000000    
12.139182    154.470901    -121.564270    0.893977    -6.443325    40.550999    -1.495311    -3.059742    -2.593012    -6.023048    7.150821    -0.474964    1.076416    -1.476949    -18.699997    16.239178    6.434615    -18.333838    13.518423    4.782707    -37.546059    -26.469423    21.151022    -85.311775    -8.964427    -26.127714    -85.733658    -6.035017    -32.844997    -11.856863    -15.136644    -6.944648    0.777659    31.541201    -21.541174    85.679008    3.240512    -5.574618    18.206572    -2.766331    -6.821452    29.745687    18.182213    -1.456407    1.971437    -14.679069    36.887199    -17.754240    5.099174    -28.472824    43.659203    0.000000    0.000000    0.000000    -17.129616    -16.559950    -11.887774    7.947631    20.334417    -14.760648    4.439959    11.323118    -13.056465    0.000000    0.000000    0.000000    
12.116551    154.455231    -121.564987    0.905995    -6.472569    40.546486    -1.474928    -3.038780    -2.545983    -5.998924    7.085142    -0.464561    1.051383    -1.468709    -18.708441    16.215693    6.561556    -18.358654    13.467317    4.649966    -37.464470    -26.342371    20.424786    -84.686844    -9.561384    -24.758831    -85.678833    -6.036203    -32.015636    -12.209566    -15.129468    -6.911926    0.734245    31.500591    -21.518559    85.633629    3.175311    -5.608766    18.228542    -2.762236    -6.843194    29.686348    18.200172    -1.445460    1.938219    -14.705236    36.912945    -17.733694    5.125566    -28.484470    43.684631    0.000000    0.000000    0.000000    -17.117599    -16.550858    -11.924326    7.940169    20.368223    -14.714246    4.456520    11.296358    -13.067667    0.000000    0.000000    0.000000    
12.094635    154.441162    -121.567726    0.921300    -6.501837    40.551094    -1.447040    -3.014888    -2.509310    -6.002074    7.026074    -0.455595    1.063910    -1.538680    -18.699600    16.128031    6.766116    -18.388258    13.441712    4.506160    -37.372929    -26.076908    19.719608    -84.119881    -9.954857    -23.583069    -85.552979    -6.177962    -31.205786    -12.143003    -15.124124    -6.919670    0.674362    31.515062    -21.476345    85.592209    3.164226    -5.629577    18.259916    -2.744483    -6.857850    29.664928    18.215128    -1.433975    1.931378    -14.704183    36.945164    -17.767235    5.147917    -28.496099    43.714893    0.000000    0.000000    0.000000    -17.110516    -16.538685    -11.961242    7.936853    20.403967    -14.692968    4.426022    11.279173    -13.039755    0.000000    0.000000    0.000000    
12.073417    154.432495    -121.568176    0.939118    -6.530506    40.566959    -1.431037    -2.988142    -2.491564    -5.988215    6.967649    -0.453757    1.079318    -1.551617    -18.698589    16.044374    6.886533    -18.413471    13.421661    4.362673    -37.252571    -26.068811    18.917065    -83.491280    -10.574754    -22.047495    -85.342575    -6.700752    -30.155531    -12.907684    -15.139556    -6.952303    0.626441    31.535633    -21.425364    85.536339    3.164087    -5.625038    18.286180    -2.704184    -6.843580    29.670132    18.229244    -1.417765    1.885478    -14.725206    36.951641    -17.761600    5.158218    -28.505463    43.730774    0.000000    0.000000    0.000000    -17.107973    -16.512716    -12.001167    7.935921    20.420149    -14.685396    4.418181    11.270952    -13.009096    0.000000    0.000000    0.000000    
12.044395    154.426407    -121.570602    0.952591    -6.560593    40.583633    -1.406902    -2.954754    -2.472029    -5.989319    6.905343    -0.450767    1.089712    -1.594767    -18.703773    15.969418    7.041624    -18.448723    13.408661    4.189816    -37.126930    -25.851318    18.114859    -82.925003    -11.104615    -20.655403    -85.113274    -6.869850    -29.210693    -13.380325    -15.162060    -6.961991    0.552588    31.556740    -21.381981    85.499695    3.169824    -5.627192    18.321199    -2.686048    -6.843259    29.686333    18.250542    -1.403504    1.856486    -14.739533    36.955093    -17.777927    5.163657    -28.511206    43.756832    0.000000    0.000000    0.000000    -17.098072    -16.494864    -12.030311    7.935601    20.446697    -14.680769    4.408905    11.268050    -13.004461    0.000000    0.000000    0.000000    
